HIERARCHY
ROOT Hips
{
    OFFSET   0.000000   0.000000   0.000000
    CHANNELS 6 Xposition Yposition Zposition Zrotation Xrotation Yrotation
    JOINT Chest
    {
        OFFSET   0.000000   8.007230   0.000000
        CHANNELS 3 Zrotation Xrotation Yrotation
        JOINT Chest2
        {
            OFFSET   0.000000  22.077100   0.000000
            CHANNELS 3 Zrotation Xrotation Yrotation
            JOINT Neck
            {
                OFFSET   0.000000  23.255100   0.000000
                CHANNELS 3 Zrotation Xrotation Yrotation
                JOINT Head
                {
                    OFFSET   0.000000  14.370100   1.956600
                    CHANNELS 3 Zrotation Xrotation Yrotation
                    End Site
                    {
                        OFFSET   0.000000  19.566000   0.000000
                    }
                }
            }
            JOINT LeftCollar
            {
                OFFSET   3.911900  19.017000  -0.467063
                CHANNELS 3 Zrotation Xrotation Yrotation
                JOINT LeftShoulder
                {
                    OFFSET  10.383700   0.000000   0.000000
                    CHANNELS 3 Zrotation Xrotation Yrotation
                    JOINT LeftElbow
                    {
                        OFFSET  26.662100   0.001193   0.000980
                        CHANNELS 3 Zrotation Xrotation Yrotation
                        JOINT LeftWrist
                        {
                            OFFSET  28.869000  -0.000059  -0.000082
                            CHANNELS 3 Zrotation Xrotation Yrotation
                            JOINT LeftFinger0
                            {
                                OFFSET   2.044650  -2.323450   3.252850
                                CHANNELS 3 Zrotation Xrotation Yrotation
                                JOINT LeftFinger01
                                {
                                    OFFSET   3.088130   0.000000   0.000000
                                    CHANNELS 3 Zrotation Xrotation Yrotation
                                    JOINT LeftFinger02
                                    {
                                        OFFSET   2.639460   0.000000   0.000000
                                        CHANNELS 3 Zrotation Xrotation Yrotation
                                        End Site
                                        {
                                            OFFSET   2.582190   0.000000   0.000000
                                        }
                                    }
                                }
                            }
                            JOINT LeftFinger1
                            {
                                OFFSET   8.364480   0.000000   3.252850
                                CHANNELS 3 Zrotation Xrotation Yrotation
                                JOINT LeftFinger11
                                {
                                    OFFSET   4.646930   0.000000   0.000000
                                    CHANNELS 3 Zrotation Xrotation Yrotation
                                    JOINT LeftFinger12
                                    {
                                        OFFSET   2.323470   0.000000   0.000000
                                        CHANNELS 3 Zrotation Xrotation Yrotation
                                        End Site
                                        {
                                            OFFSET   2.273050   0.000000   0.000000
                                        }
                                    }
                                }
                            }
                            JOINT LeftFinger2
                            {
                                OFFSET   8.364490   0.000016   1.078090
                                CHANNELS 3 Zrotation Xrotation Yrotation
                                JOINT LeftFinger21
                                {
                                    OFFSET   5.111610   0.000000   0.000000
                                    CHANNELS 3 Zrotation Xrotation Yrotation
                                    JOINT LeftFinger22
                                    {
                                        OFFSET   2.788150   0.000016   0.000000
                                        CHANNELS 3 Zrotation Xrotation Yrotation
                                        End Site
                                        {
                                            OFFSET   2.727660   0.000000   0.000000
                                        }
                                    }
                                }
                            }
                            JOINT LeftFinger3
                            {
                                OFFSET   7.899780   0.000015  -1.078090
                                CHANNELS 3 Zrotation Xrotation Yrotation
                                JOINT LeftFinger31
                                {
                                    OFFSET   4.646930   0.000000   0.000000
                                    CHANNELS 3 Zrotation Xrotation Yrotation
                                    JOINT LeftFinger32
                                    {
                                        OFFSET   2.323470   0.000000   0.000000
                                        CHANNELS 3 Zrotation Xrotation Yrotation
                                        End Site
                                        {
                                            OFFSET   2.273050   0.000000   0.000000
                                        }
                                    }
                                }
                            }
                            JOINT LeftFinger4
                            {
                                OFFSET   7.435090   0.000000  -3.252850
                                CHANNELS 3 Zrotation Xrotation Yrotation
                                JOINT LeftFinger41
                                {
                                    OFFSET   3.717550   0.000000   0.000000
                                    CHANNELS 3 Zrotation Xrotation Yrotation
                                    JOINT LeftFinger42
                                    {
                                        OFFSET   1.858770   0.000000   0.000000
                                        CHANNELS 3 Zrotation Xrotation Yrotation
                                        End Site
                                        {
                                            OFFSET   1.818440   0.000000   0.000000
                                        }
                                    }
                                }
                            }
                        }
                    }
                }
            }
            JOINT RightCollar
            {
                OFFSET  -3.911910  19.017000  -0.467062
                CHANNELS 3 Zrotation Xrotation Yrotation
                JOINT RightShoulder
                {
                    OFFSET -10.383700   0.000014   0.000000
                    CHANNELS 3 Zrotation Xrotation Yrotation
                    JOINT RightElbow
                    {
                        OFFSET -26.662100   0.001225   0.001091
                        CHANNELS 3 Zrotation Xrotation Yrotation
                        JOINT RightWrist
                        {
                            OFFSET -28.869000  -0.000020  -0.000085
                            CHANNELS 3 Zrotation Xrotation Yrotation
                            JOINT RightFinger0
                            {
                                OFFSET  -2.044650  -2.323490   3.252850
                                CHANNELS 3 Zrotation Xrotation Yrotation
                                JOINT RightFinger01
                                {
                                    OFFSET  -3.088130   0.000000   0.000000
                                    CHANNELS 3 Zrotation Xrotation Yrotation
                                    JOINT RightFinger02
                                    {
                                        OFFSET  -2.639460   0.000000   0.000000
                                        CHANNELS 3 Zrotation Xrotation Yrotation
                                        End Site
                                        {
                                            OFFSET  -2.582190   0.000000   0.000000
                                        }
                                    }
                                }
                            }
                            JOINT RightFinger1
                            {
                                OFFSET  -8.364480   0.000000   3.252850
                                CHANNELS 3 Zrotation Xrotation Yrotation
                                JOINT RightFinger11
                                {
                                    OFFSET  -4.646930   0.000000   0.000000
                                    CHANNELS 3 Zrotation Xrotation Yrotation
                                    JOINT RightFinger12
                                    {
                                        OFFSET  -2.323470   0.000000   0.000000
                                        CHANNELS 3 Zrotation Xrotation Yrotation
                                        End Site
                                        {
                                            OFFSET  -2.273050   0.000000   0.000000
                                        }
                                    }
                                }
                            }
                            JOINT RightFinger2
                            {
                                OFFSET  -8.364480   0.000000   1.078090
                                CHANNELS 3 Zrotation Xrotation Yrotation
                                JOINT RightFinger21
                                {
                                    OFFSET  -5.111620   0.000000   0.000000
                                    CHANNELS 3 Zrotation Xrotation Yrotation
                                    JOINT RightFinger22
                                    {
                                        OFFSET  -2.788160   0.000000   0.000000
                                        CHANNELS 3 Zrotation Xrotation Yrotation
                                        End Site
                                        {
                                            OFFSET  -2.727660   0.000000   0.000000
                                        }
                                    }
                                }
                            }
                            JOINT RightFinger3
                            {
                                OFFSET  -7.899780   0.000000  -1.078090
                                CHANNELS 3 Zrotation Xrotation Yrotation
                                JOINT RightFinger31
                                {
                                    OFFSET  -4.646930   0.000000   0.000000
                                    CHANNELS 3 Zrotation Xrotation Yrotation
                                    JOINT RightFinger32
                                    {
                                        OFFSET  -2.323470   0.000000   0.000000
                                        CHANNELS 3 Zrotation Xrotation Yrotation
                                        End Site
                                        {
                                            OFFSET  -2.273050   0.000000   0.000000
                                        }
                                    }
                                }
                            }
                            JOINT RightFinger4
                            {
                                OFFSET  -7.435090   0.000000  -3.252850
                                CHANNELS 3 Zrotation Xrotation Yrotation
                                JOINT RightFinger41
                                {
                                    OFFSET  -3.717550   0.000000   0.000000
                                    CHANNELS 3 Zrotation Xrotation Yrotation
                                    JOINT RightFinger42
                                    {
                                        OFFSET  -1.858760   0.000000   0.000000
                                        CHANNELS 3 Zrotation Xrotation Yrotation
                                        End Site
                                        {
                                            OFFSET  -1.818440   0.000000   0.000000
                                        }
                                    }
                                }
                            }
                        }
                    }
                }
            }
        }
    }
    JOINT LeftHip
    {
        OFFSET   9.783030   0.000000   0.000000
        CHANNELS 3 Zrotation Xrotation Yrotation
        JOINT LeftKnee
        {
            OFFSET   0.000063 -41.789100   0.000608
            CHANNELS 3 Zrotation Xrotation Yrotation
            JOINT LeftAnkle
            {
                OFFSET   0.000048 -41.133200  -0.000184
                CHANNELS 3 Zrotation Xrotation Yrotation
                JOINT LeftToe
                {
                    OFFSET   0.000000  -6.358960  14.674500
                    CHANNELS 3 Zrotation Xrotation Yrotation
                    End Site
                    {
                        OFFSET   0.000000   0.000000   3.913200
                    }
                }
            }
        }
    }
    JOINT RightHip
    {
        OFFSET  -9.783030   0.000000   0.000000
        CHANNELS 3 Zrotation Xrotation Yrotation
        JOINT RightKnee
        {
            OFFSET   0.000071 -41.789100   0.001239
            CHANNELS 3 Zrotation Xrotation Yrotation
            JOINT RightAnkle
            {
                OFFSET   0.000037 -41.133200  -0.000166
                CHANNELS 3 Zrotation Xrotation Yrotation
                JOINT RightToe
                {
                    OFFSET   0.000000  -6.358960  14.674500
                    CHANNELS 3 Zrotation Xrotation Yrotation
                    End Site
                    {
                        OFFSET   0.000000   0.000000   3.913200
                    }
                }
            }
        }
    }
}
MOTION
Frames: 4
Frame Time:   0.016667
  1.247620  89.625300   0.595699  -2.110520  -6.797970  -2.155830   0.787454   3.672980  -0.623626   1.620010   7.336770  -1.301910   0.819216  -0.196651   0.000102   1.342800  -0.398352   5.324880  -4.181250   0.671440   3.987940 -73.914800  25.921500  -2.388230  -3.487180 -11.282200 -13.036200   7.909710 -12.602400   5.617510  39.220000  31.480100 -61.857700 -30.295600   0.003047   0.001905 -10.147800   0.001702   0.001023 -28.280700   8.079560 -14.641200 -23.989400  -0.000958   0.004345 -16.792600  -0.000534   0.002885 -27.860900   1.420450  -2.684950 -31.300900   0.000982  -0.001501 -20.846400  -0.009970  -0.001280 -26.802400   1.371670  -2.710180 -26.834900   0.000325  -0.001504 -17.872100  -0.004635  -0.001082 -24.190700  -0.669668   1.500240 -36.299100  -0.000968  -0.000581 -24.175200  -0.002482  -0.000565   8.444650   2.148140   6.613170  67.211200  23.240800  -0.107931  -0.240238  -3.964030   9.982580 -10.805900 -13.902600  -3.379800 -38.000300  29.610300  60.754700  30.651800   0.001198  -0.005029  10.325900   0.000479  -0.003599  27.571500   9.177140  16.984900  23.682000  -0.003046   0.000336  16.575300   0.002461   0.001711  27.491200   5.594200  10.618300  32.065600  -0.008038   0.009606  21.355700  -0.003668   0.006449  24.309000   1.729220   3.821980  24.366700  -0.003874   0.008797  16.228200   0.000000   0.007185  30.867600   1.081630   1.828430  46.338300  -0.007542   0.008020  30.853700  -0.015132   0.002016   1.002730   8.014590   4.343720   0.690029   0.061799  10.994100  -1.426710  -2.321980   2.572810   0.000000   0.000000  -0.000000   3.146940   7.777930   0.458979  -1.694480   2.383340 -10.121400   0.171431  -4.806840  -2.539800  -0.000000   0.000000  -0.000000
  1.253730  89.625200   0.598881  -2.111360  -6.798750  -2.162730   0.788513   3.666080  -0.624132   1.622080   7.322980  -1.302890   0.815078  -0.200373   0.000091   1.337350  -0.406077   5.337110  -4.189860   0.671255   3.995840 -73.933700  25.916900  -2.366490  -3.483770 -11.276000 -13.012200   7.888460 -12.618700   5.601830  39.209400  31.467300 -61.890900 -30.286800   0.003033   0.001867 -10.143400   0.001701   0.001029 -28.293700   8.083160 -14.640800 -24.000500  -0.000960   0.004372 -16.800400  -0.000534   0.002894 -27.860900   1.420450  -2.684950 -31.318900   0.000984  -0.001517 -20.858500  -0.009971  -0.001291 -26.813800   1.371670  -2.710180 -26.846300   0.000309  -0.001514 -17.879700  -0.004641  -0.001088 -24.203900  -0.669670   1.494370 -36.319000  -0.000958  -0.000570 -24.188400  -0.002483  -0.000555   8.443900   2.152310   6.620010  67.205600  23.236800  -0.098747  -0.249637  -3.963820   9.989350 -10.817900 -13.917600  -3.370690 -38.011400  29.625000  60.747600  30.645300   0.001198  -0.005029  10.322600   0.000480  -0.003596  27.572400   9.181830  16.991100  23.683600  -0.003046   0.000312  16.577300   0.002464   0.001710  27.492400   5.594270  10.617200  32.076200  -0.008048   0.009602  21.362700  -0.003673   0.006443  24.321600   1.738650   3.841270  24.379900  -0.003876   0.008792  16.237000   0.000000   0.007181  30.867900   1.081730   1.828430  46.334600  -0.007550   0.008020  30.854000  -0.015134   0.002010   1.000510   7.996800   4.342910   0.689218   0.119433  11.001800  -1.433100  -2.363980   2.572510  -0.000000   0.000000   0.000000   3.149530   7.777440   0.462580  -1.700360   2.397750 -10.136900   0.172263  -4.815000  -2.522230  -0.000000   0.000000   0.000000
  1.262530  89.625200   0.604198  -2.112710  -6.802390  -2.173210   0.790908   3.656080  -0.625372   1.626820   7.302930  -1.305380   0.806879  -0.208762   0.000080   1.325620  -0.423276   5.357810  -4.204090   0.671066   4.007540 -73.963000  25.904100  -2.333600  -3.483200 -11.265200 -12.988000   7.853140 -12.635300   5.574500  39.206000  31.457800 -61.927800 -30.270600   0.003006   0.001810 -10.135300   0.001697   0.001047 -28.307100   8.086860 -14.637700 -24.011600  -0.000965   0.004438 -16.808100  -0.000531   0.002917 -27.860900   1.420450  -2.684950 -31.337000   0.000989  -0.001559 -20.870500  -0.009974  -0.001319 -26.825300   1.371670  -2.710180 -26.857700   0.000268  -0.001540 -17.887200  -0.004657  -0.001105 -24.217100  -0.669671   1.488500 -36.338800  -0.000930  -0.000541 -24.201600  -0.002483  -0.000530   8.442600   2.159740   6.630500  67.194700  23.232800  -0.080715  -0.267048  -3.962750  10.002600 -10.841200 -13.944000  -3.361740 -38.030800  29.643700  60.744700  30.638800   0.001195  -0.005029  10.319400   0.000481  -0.003590  27.582000   9.188530  16.997400  23.692800  -0.003046   0.000259  16.585000   0.002470   0.001709  27.496900   5.594390  10.612900  32.109000  -0.008077   0.009592  21.384600  -0.003687   0.006428  24.350000   1.751150   3.862940  24.409000  -0.003886   0.008780  16.256400   0.000000   0.007170  30.870200   1.081870   1.828430  46.330800  -0.007569   0.008019  30.856300  -0.015139   0.001994   0.996230   7.979010   4.342110   0.688379   0.177062  11.013400  -1.439490  -2.405980   2.572210   0.000000   0.000000   0.000000   3.156390   7.776690   0.471202  -1.712270   2.421150 -10.165500   0.173722  -4.828710  -2.494420  -0.000000   0.000000   0.000000
  1.266620  89.625100   0.608770  -2.113730  -6.810410  -2.179610   0.794060   3.651440  -0.627449   1.633210   7.293560  -1.309660   0.797607  -0.220811   0.000112   1.310620  -0.447552   5.375110  -4.215310   0.671092   4.014720 -73.981000  25.877300  -2.314020  -3.493850 -11.257000 -12.987600   7.817940 -12.617500   5.543490  39.222300  31.467800 -61.925800 -30.255200   0.002979   0.001780 -10.127600   0.001678   0.001079 -28.295900   8.072170 -14.617600 -24.000200  -0.000975   0.004538 -16.800200  -0.000524   0.002952 -27.856400   1.412380  -2.670220 -31.307400   0.000996  -0.001626 -20.850800  -0.009977  -0.001361 -26.814100   1.363450  -2.695530 -26.846100   0.000203  -0.001580 -17.879500  -0.004683  -0.001132 -24.206000  -0.678437   1.508780 -36.322500  -0.000886  -0.000495 -24.190700  -0.002483  -0.000490   8.441360   2.167320   6.637360  67.181400  23.242500  -0.058014  -0.285730  -3.958730  10.017200 -10.872900 -13.974300  -3.366000 -38.031300  29.654300  60.756600  30.652200   0.001182  -0.005019  10.327400   0.000494  -0.003578  27.610900   9.191160  16.983500  23.716000  -0.003054   0.000183  16.601400   0.002479   0.001712  27.506500   5.594460  10.603400  32.172000  -0.008119   0.009578  21.426600  -0.003710   0.006404  24.390400   1.753960   3.865590  24.449600  -0.003904   0.008764  16.283400   0.000000   0.007150  30.884600   1.081930   1.823330  46.351100  -0.007597   0.008018  30.870800  -0.015146   0.001973   0.989892   8.005880   4.344120   0.689606   0.125452  11.020000  -1.436110  -2.379220   2.572460  -0.000000   0.000000   0.000000   3.167000   7.776100   0.485492  -1.726040   2.437280 -10.196600   0.174894  -4.839510  -2.475110  -0.000000   0.000000   0.000000
